<?xml version="1.0" encoding="UTF-8"?>
<svg version="1.1" xmlns="http://www.w3.org/2000/svg" width="91" height="93">
<path d="M0 0 C2.64 0 5.28 0 8 0 C8.99 3.63 9.98 7.26 11 11 C11.7115625 8.5559375 11.7115625 8.5559375 12.4375 6.0625 C13.875 1.125 13.875 1.125 15 0 C17.33297433 -0.04092937 19.66705225 -0.04241723 22 0 C22.99 2.97 23.98 5.94 25 9 C25.33 9 25.66 9 26 9 C26.99 6.03 27.98 3.06 29 0 C32.64581687 -0.02887512 36.29160463 -0.04675585 39.9375 -0.0625 C41.49887695 -0.07506836 41.49887695 -0.07506836 43.09179688 -0.08789062 C44.08115234 -0.09111328 45.07050781 -0.09433594 46.08984375 -0.09765625 C47.46450806 -0.10551147 47.46450806 -0.10551147 48.86694336 -0.11352539 C51 0 51 0 52 1 C52.125 3.5 52.125 3.5 52 6 C51 7 51 7 47.4375 7.0625 C46.303125 7.041875 45.16875 7.02125 44 7 C44.495 12.94 44.495 12.94 45 19 C47.31 19.33 49.62 19.66 52 20 C52.04254356 21.99954746 52.04080783 24.00041636 52 26 C51 27 51 27 47.75 27.25 C43.79596338 26.98639756 42.09629244 26.38856845 39 24 C36.51955685 20.27933528 36.55618827 17.13459526 36.375 12.8125 C36.31699219 11.68811523 36.31699219 11.68811523 36.2578125 10.54101562 C36.16371784 8.69440801 36.08077681 6.8472381 36 5 C35.823479 5.60062256 35.64695801 6.20124512 35.46508789 6.82006836 C34.66755 9.52687158 33.86509318 12.23219163 33.0625 14.9375 C32.78470703 15.88302734 32.50691406 16.82855469 32.22070312 17.80273438 C31.95322266 18.70185547 31.68574219 19.60097656 31.41015625 20.52734375 C31.16402588 21.35999756 30.91789551 22.19265137 30.66430664 23.05053711 C30 25 30 25 29 26 C26.66702567 26.04092937 24.33294775 26.04241723 22 26 C21.49166409 24.75336669 20.99368855 23.50250613 20.5 22.25 C20.2215625 21.55390625 19.943125 20.8578125 19.65625 20.140625 C19 18 19 18 19 14 C18.34 14 17.68 14 17 14 C16.34 17.63 15.68 21.26 15 25 C13.02 25.66 11.04 26.32 9 27 C4.49902328 23.45115297 3.60873221 19.3820648 2.25 14.0625 C1.91935547 12.86463867 1.91935547 12.86463867 1.58203125 11.64257812 C0.52709818 7.68821722 -0.30033145 4.12955751 0 0 Z " fill="#8C1671" transform="translate(14,26)"/>
<path d="M0 0 C0.66 0 1.32 0 2 0 C2 0.66 2 1.32 2 2 C2.84304687 1.91621094 3.68609375 1.83242187 4.5546875 1.74609375 C5.65039062 1.64425781 6.74609375 1.54242188 7.875 1.4375 C9.51082031 1.28087891 9.51082031 1.28087891 11.1796875 1.12109375 C14 1 14 1 16 2 C18.37402501 2.07116382 20.75000677 2.08409085 23.125 2.0625 C24.40632813 2.05347656 25.68765625 2.04445313 27.0078125 2.03515625 C27.99523438 2.02355469 28.98265625 2.01195313 30 2 C30 3.98 30 5.96 30 8 C29.01 8.33 28.02 8.66 27 9 C26.34 8.67 25.68 8.34 25 8 C25 7.01 25 6.02 25 5 C24.34 4.67 23.68 4.34 23 4 C23 5.32 23 6.64 23 8 C22.16855469 7.98839844 21.33710937 7.97679688 20.48046875 7.96484375 C18.85044922 7.95130859 18.85044922 7.95130859 17.1875 7.9375 C15.56908203 7.92009766 15.56908203 7.92009766 13.91796875 7.90234375 C10.93487831 7.86375234 10.93487831 7.86375234 8 9 C5.8125 8.5625 5.8125 8.5625 4 8 C4 6.68 4 5.36 4 4 C3.34 4 2.68 4 2 4 C2 5.32 2 6.64 2 8 C-0.31 8 -2.62 8 -5 8 C-5 6.02 -5 4.04 -5 2 C-3.68 2 -2.36 2 -1 2 C-0.67 1.34 -0.34 0.68 0 0 Z M-3 4 C-3 4.66 -3 5.32 -3 6 C-2.01 6 -1.02 6 0 6 C-0.33 5.34 -0.66 4.68 -1 4 C-1.66 4 -2.32 4 -3 4 Z M14 4 C15 6 15 6 15 6 Z " fill="#611E5D" transform="translate(36,64)"/>
<path d="M0 0 C3.64581687 -0.02887512 7.29160463 -0.04675585 10.9375 -0.0625 C12.49887695 -0.07506836 12.49887695 -0.07506836 14.09179688 -0.08789062 C15.08115234 -0.09111328 16.07050781 -0.09433594 17.08984375 -0.09765625 C18.46450806 -0.10551147 18.46450806 -0.10551147 19.86694336 -0.11352539 C22 0 22 0 23 1 C23.04063832 2.66617115 23.042721 4.33388095 23 6 C22.01 6.495 22.01 6.495 21 7 C21 5.02 21 3.04 21 1 C17.04 1 13.08 1 9 1 C9.14134727 3.89611544 9.2879153 6.7918081 9.4375 9.6875 C9.47681641 10.50412109 9.51613281 11.32074219 9.55664062 12.16210938 C9.76898003 16.19655811 10.04447922 20.05747309 11 24 C9.54296875 23.01171875 9.54296875 23.01171875 8 21 C7.62325482 18.20748417 7.39808059 15.61220799 7.3125 12.8125 C7.27833984 12.06291016 7.24417969 11.31332031 7.20898438 10.54101562 C7.12665706 8.69453162 7.06164719 6.84729006 7 5 C6.83918945 5.60062256 6.67837891 6.20124512 6.51269531 6.82006836 C5.77617596 9.53105846 5.0135153 12.23399509 4.25 14.9375 C3.87101562 16.35579102 3.87101562 16.35579102 3.484375 17.80273438 C3.2265625 18.70185547 2.96875 19.60097656 2.703125 20.52734375 C2.47270508 21.35999756 2.24228516 22.19265137 2.00488281 23.05053711 C1 25 1 25 -1.10644531 25.77954102 C-1.73131836 25.85229248 -2.35619141 25.92504395 -3 26 C-2.34 25.34 -1.68 24.68 -1 24 C-0.27907691 21.41285076 -0.27907691 21.41285076 0.1875 18.5 C0.36667969 17.5203125 0.54585937 16.540625 0.73046875 15.53125 C1.22919504 13.00888659 1.22919504 13.00888659 0 11 C0.33 10.34 0.66 9.68 1 9 C1.99 9 2.98 9 4 9 C4 7.35 4 5.7 4 4 C4.66 4 5.32 4 6 4 C6 3.01 6 2.02 6 1 C2.87802522 2.3089572 2.87802522 2.3089572 1 5 C0.34 5 -0.32 5 -1 5 C-1.33 7.64 -1.66 10.28 -2 13 C-3.18771723 9.57056481 -2.80226223 7.62215325 -1.5625 4.25 C-1.27503906 3.45078125 -0.98757812 2.6515625 -0.69140625 1.828125 C-0.46324219 1.22484375 -0.23507813 0.6215625 0 0 Z " fill="#83296D" transform="translate(43,26)"/>
<path d="M0 0 C1.66821323 -0.32550502 3.33499557 -0.65846063 5 -1 C5.99 -0.67 6.98 -0.34 8 0 C8 1.98 8 3.96 8 6 C7.01 6 6.02 6 5 6 C3.85917969 6.01740234 3.85917969 6.01740234 2.6953125 6.03515625 C-1.69117946 6.08182106 -5.71278655 6.03932447 -10 5 C-10.99 5 -11.98 5 -13 5 C-13.33 3.35 -13.66 1.7 -14 0 C-12.41773035 -0.19627391 -10.83410729 -0.38165538 -9.25 -0.5625 C-8.36828125 -0.66691406 -7.4865625 -0.77132812 -6.578125 -0.87890625 C-4.09531544 -0.99552306 -2.37118073 -0.64208945 0 0 Z M-4 2 C-4 2.66 -4 3.32 -4 4 C-3.34 4 -2.68 4 -2 4 C-2 3.34 -2 2.68 -2 2 C-2.66 2 -3.32 2 -4 2 Z " fill="#5F2154" transform="translate(46,57)"/>
<path d="M0 0 C0 0.99 0 1.98 0 3 C-0.66 3 -1.32 3 -2 3 C-2 4.65 -2 6.3 -2 8 C-2.99 8 -3.98 8 -5 8 C-4.773125 9.010625 -4.54625 10.02125 -4.3125 11.0625 C-3.926103 15.93110221 -4.57520943 17.8193266 -7 22 C-8.32 22.33 -9.64 22.66 -11 23 C-10.67 19.37 -10.34 15.74 -10 12 C-9.34 12 -8.68 12 -8 12 C-7.67 9.36 -7.34 6.72 -7 4 C-6.34 4 -5.68 4 -5 4 C-4.67 3.01 -4.34 2.02 -4 1 C-2 0 -2 0 0 0 Z " fill="#931276" transform="translate(49,27)"/>
<path d="M0 0 C2.64 0 5.28 0 8 0 C8.20496094 0.77085938 8.40992188 1.54171875 8.62109375 2.3359375 C8.89050781 3.33882812 9.15992188 4.34171875 9.4375 5.375 C9.70433594 6.37273438 9.97117187 7.37046875 10.24609375 8.3984375 C10.90184356 10.95417701 10.90184356 10.95417701 12 13 C9.625 12.8125 9.625 12.8125 7 12 C5.6875 9.4375 5.6875 9.4375 5 7 C4.34 8.32 3.68 9.64 3 11 C0.43383368 7.15075052 0.44902324 4.5650696 0 0 Z " fill="#87176A" transform="translate(14,26)"/>
<path d="M0 0 C0.66 0.33 1.32 0.66 2 1 C2 1.66 2 2.32 2 3 C2.99 3.33 3.98 3.66 5 4 C6.125 8.75 6.125 8.75 5 11 C4.34 11 3.68 11 3 11 C2.67 9.02 2.34 7.04 2 5 C1.34 5 0.68 5 0 5 C0 4.34 0 3.68 0 3 C-3.43793339 3.18129815 -3.43793339 3.18129815 -7 4 C-8.48396654 5.80092298 -8.48396654 5.80092298 -9 8 C-9.33 8.99 -9.66 9.98 -10 11 C-10.99 10.67 -11.98 10.34 -13 10 C-12.67 8.02 -12.34 6.04 -12 4 C-11.01 3.67 -10.02 3.34 -9 3 C-8.67 2.01 -8.34 1.02 -8 0 C-4.67803635 -1.10732122 -3.31749961 -0.85064093 0 0 Z " fill="#68264E" transform="translate(58,10)"/>
<path d="M0 0 C2.5 0.25 2.5 0.25 4.5 2.25 C4.125 5.375 4.125 5.375 3.5 8.25 C0.625 8.875 0.625 8.875 -2.5 9.25 C-4.5 7.25 -4.5 7.25 -4.75 4.75 C-4.40058445 1.25584452 -3.49415548 0.34941555 0 0 Z " fill="#792265" transform="translate(54.5,14.75)"/>
<path d="M0 0 C4.29 0 8.58 0 13 0 C13 1.98 13 3.96 13 6 C12.01 6.33 11.02 6.66 10 7 C9.34 6.67 8.68 6.34 8 6 C8 5.01 8 4.02 8 3 C7.34 2.67 6.68 2.34 6 2 C6 3.32 6 4.64 6 6 C4.02 6 2.04 6 0 6 C0.66 5.67 1.32 5.34 2 5 C2 3.68 2 2.36 2 1 C1.34 0.67 0.68 0.34 0 0 Z " fill="#68285D" transform="translate(53,66)"/>
<path d="M0 0 C2.31 0 4.62 0 7 0 C7 0.33 7 0.66 7 1 C5.02 1 3.04 1 1 1 C1 4.96 1 8.92 1 13 C0.01 13 -0.98 13 -2 13 C-2.66 13.66 -3.32 14.32 -4 15 C-4 10.71 -4 6.42 -4 2 C-3.34 2 -2.68 2 -2 2 C-2 2.66 -2 3.32 -2 4 C-1.34 4 -0.68 4 0 4 C0 2.68 0 1.36 0 0 Z " fill="#95227A" transform="translate(57,32)"/>
<path d="M0 0 C0.66 0 1.32 0 2 0 C2 0.66 2 1.32 2 2 C2.99 2 3.98 2 5 2 C5 3.98 5 5.96 5 8 C4.67 6.68 4.34 5.36 4 4 C3.34 4 2.68 4 2 4 C2 5.32 2 6.64 2 8 C-0.31 8 -2.62 8 -5 8 C-5 6.02 -5 4.04 -5 2 C-3.68 2 -2.36 2 -1 2 C-0.67 1.34 -0.34 0.68 0 0 Z M-3 4 C-3 4.66 -3 5.32 -3 6 C-2.01 6 -1.02 6 0 6 C-0.33 5.34 -0.66 4.68 -1 4 C-1.66 4 -2.32 4 -3 4 Z " fill="#652B5D" transform="translate(36,64)"/>
<path d="M0 0 C2.97 0.33 5.94 0.66 9 1 C9 2.98 9 4.96 9 7 C2.84765625 7.09765625 2.84765625 7.09765625 1 7 C0 6 0 6 -0.0625 2.9375 C-0.041875 1.968125 -0.02125 0.99875 0 0 Z M3 2 C3 3.32 3 4.64 3 6 C3.33 4.68 3.66 3.36 4 2 C3.67 2 3.34 2 3 2 Z " fill="#78306F" transform="translate(21,65)"/>
<path d="M0 0 C-0.33 2.64 -0.66 5.28 -1 8 C-2.65 8.66 -4.3 9.32 -6 10 C-6.66666667 7.33333333 -7.33333333 4.66666667 -8 2 C-5.09399739 0.74335022 -3.20395416 0 0 0 Z " fill="#961978" transform="translate(37,28)"/>
<path d="M0 0 C3.3 0 6.6 0 10 0 C10 1.65 10 3.3 10 5 C6.62182575 5.84454356 4.32534757 6.10844919 1 5 C0.67 3.35 0.34 1.7 0 0 Z " fill="#64275B" transform="translate(32,57)"/>
<path d="M0 0 C0.66 0 1.32 0 2 0 C2.38909985 1.45463481 2.76088029 2.91391207 3.125 4.375 C3.43824219 5.59316406 3.43824219 5.59316406 3.7578125 6.8359375 C3.83773437 7.55007812 3.91765625 8.26421875 4 9 C3.34 9.66 2.68 10.32 2 11 C1.01 11 0.02 11 -1 11 C-0.67 7.37 -0.34 3.74 0 0 Z " fill="#93117A" transform="translate(39,39)"/>
<path d="M0 0 C0.99 0 1.98 0 3 0 C3 2.97 3 5.94 3 9 C2.01 9 1.02 9 0 9 C0 9.66 0 10.32 0 11 C-1.32 10.67 -2.64 10.34 -4 10 C-3.67 8.68 -3.34 7.36 -3 6 C-2.01 6.33 -1.02 6.66 0 7 C0 5.68 0 4.36 0 3 C0 2.01 0 1.02 0 0 Z " fill="#94227A" transform="translate(23,39)"/>
<path d="M0 0 C0.598125 0.20625 1.19625 0.4125 1.8125 0.625 C1.8125 2.275 1.8125 3.925 1.8125 5.625 C-0.4975 5.295 -2.8075 4.965 -5.1875 4.625 C-5.1875 3.635 -5.1875 2.645 -5.1875 1.625 C-2.1875 -0.375 -2.1875 -0.375 0 0 Z " fill="#911572" transform="translate(55.1875,16.375)"/>
<path d="M0 0 C2.69082872 0.17635452 5.32851446 0.61835921 8 1 C8 2.32 8 3.64 8 5 C5.69 5 3.38 5 1 5 C0.34 3.68 -0.32 2.36 -1 1 C-0.67 0.67 -0.34 0.34 0 0 Z " fill="#921277" transform="translate(56,46)"/>
<path d="M0 0 C0.66 0 1.32 0 2 0 C1.34 3.3 0.68 6.6 0 10 C-1.98 10.66 -3.96 11.32 -6 12 C-6.99 11.01 -7.98 10.02 -9 9 C-6.03 9.495 -6.03 9.495 -3 10 C-2.01 6.7 -1.02 3.4 0 0 Z " fill="#7E216A" transform="translate(29,41)"/>
<path d="M0 0 C3.625 -0.1875 3.625 -0.1875 7 0 C7 0.66 7 1.32 7 2 C4 4 4 4 0 4 C-0.33 4.99 -0.66 5.98 -1 7 C-1.625 5.1875 -1.625 5.1875 -2 3 C-1.34 2.01 -0.68 1.02 0 0 Z " fill="#8A2573" transform="translate(29,26)"/>
<path d="M0 0 C1.5 1.3125 1.5 1.3125 3 3 C3 3.99 3 4.98 3 6 C3.66 6.33 4.32 6.66 5 7 C4.67 7.66 4.34 8.32 4 9 C4.33 9.99 4.66 10.98 5 12 C3.68 11.67 2.36 11.34 1 11 C1.04125 10.21625 1.0825 9.4325 1.125 8.625 C1.28728734 5.83883881 1.28728734 5.83883881 -1 4 C-0.625 1.875 -0.625 1.875 0 0 Z " fill="#941277" transform="translate(18,32)"/>
<path d="M0 0 C0.99 0.33 1.98 0.66 3 1 C3 2.65 3 4.3 3 6 C1.0625 6.5625 1.0625 6.5625 -1 7 C-2 6 -2 6 -2.0625 3.4375 C-2.041875 2.633125 -2.02125 1.82875 -2 1 C-1.34 0.67 -0.68 0.34 0 0 Z " fill="#652059" transform="translate(57,56)"/>
<path d="M0 0 C0.99 0.66 1.98 1.32 3 2 C2.525625 2.391875 2.05125 2.78375 1.5625 3.1875 C-0.35179633 5.40808374 -0.61266988 7.13375709 -1 10 C-1.99 9.67 -2.98 9.34 -4 9 C-3.67 7.02 -3.34 5.04 -3 3 C-2.01 2.67 -1.02 2.34 0 2 C0 1.34 0 0.68 0 0 Z " fill="#5F1E4A" transform="translate(49,11)"/>
<path d="M0 0 C2.31 0 4.62 0 7 0 C7.04254356 1.99954746 7.04080783 4.00041636 7 6 C6 7 6 7 2.4375 7.0625 C1.303125 7.041875 0.16875 7.02125 -1 7 C-1 6.67 -1 6.34 -1 6 C0.65 5.67 2.3 5.34 4 5 C4.33 3.68 4.66 2.36 5 1 C3.35 1 1.7 1 0 1 C0 0.67 0 0.34 0 0 Z " fill="#842F6A" transform="translate(59,46)"/>
<path d="M0 0 C2.0625 0.4375 2.0625 0.4375 4 1 C4 2.98 4 4.96 4 7 C3.34 7 2.68 7 2 7 C1.67 5.68 1.34 4.36 1 3 C0.34 4.32 -0.32 5.64 -1 7 C-1.04254356 5.00045254 -1.04080783 2.99958364 -1 1 C-0.67 0.67 -0.34 0.34 0 0 Z " fill="#692B53" transform="translate(62,56)"/>
<path d="M0 0 C1.32 0.66 2.64 1.32 4 2 C2.625 3.5 2.625 3.5 1 5 C0.34 5 -0.32 5 -1 5 C-1.33 7.64 -1.66 10.28 -2 13 C-3.18771723 9.57056481 -2.80226223 7.62215325 -1.5625 4.25 C-1.27503906 3.45078125 -0.98757812 2.6515625 -0.69140625 1.828125 C-0.46324219 1.22484375 -0.23507813 0.6215625 0 0 Z " fill="#811F64" transform="translate(43,26)"/>
<path d="M0 0 C2.64 0 5.28 0 8 0 C7.67 0.66 7.34 1.32 7 2 C5.68 2 4.36 2 3 2 C3 3.98 3 5.96 3 8 C2.34 8 1.68 8 1 8 C0.67 5.36 0.34 2.72 0 0 Z " fill="#79235D" transform="translate(14,26)"/>
<path d="M0 0 C0.99 0.33 1.98 0.66 3 1 C3 2.32 3 3.64 3 5 C1.35 5.33 -0.3 5.66 -2 6 C-1.34 4.02 -0.68 2.04 0 0 Z " fill="#5B134E" transform="translate(52,66)"/>
<path d="M0 0 C1.98 0.99 1.98 0.99 4 2 C4 3.32 4 4.64 4 6 C3.01 6.33 2.02 6.66 1 7 C0 6 0 6 -0.0625 2.9375 C-0.041875 1.968125 -0.02125 0.99875 0 0 Z " fill="#5D2455" transform="translate(21,65)"/>
<path d="M0 0 C0.99 0.33 1.98 0.66 3 1 C2.34 2.65 1.68 4.3 1 6 C0.01 6 -0.98 6 -2 6 C-1.34 4.02 -0.68 2.04 0 0 Z " fill="#961476" transform="translate(36,38)"/>
<path d="M0 0 C0.66 0 1.32 0 2 0 C2.66 2.31 3.32 4.62 4 7 C2.35 6.67 0.7 6.34 -1 6 C-0.67 4.02 -0.34 2.04 0 0 Z " fill="#A02382" transform="translate(39,39)"/>
<path d="M0 0 C1.32 0 2.64 0 4 0 C4 0.99 4 1.98 4 3 C2.35 3.66 0.7 4.32 -1 5 C-0.67 3.35 -0.34 1.7 0 0 Z " fill="#911474" transform="translate(17,27)"/>
<path d="M0 0 C1.32 0 2.64 0 4 0 C4 1.65 4 3.3 4 5 C3.34 5 2.68 5 2 5 C1.34 4.34 0.68 3.68 0 3 C0 2.01 0 1.02 0 0 Z " fill="#6C2060" transform="translate(38,57)"/>
<path d="M0 0 C1.32 0 2.64 0 4 0 C4 1.65 4 3.3 4 5 C3.01 5.33 2.02 5.66 1 6 C0.67 4.02 0.34 2.04 0 0 Z " fill="#951278" transform="translate(52,27)"/>
</svg>
